<svg width="19" height="18" viewBox="0 0 19 18" fill="none" xmlns="http://www.w3.org/2000/svg">
<g id="Icon / Duotone / CalendarBlank">
<path id="Vector" opacity="0.2" d="M3.77344 6.1875H16.1484V3.375C16.1484 3.22582 16.0892 3.08274 15.9837 2.97725C15.8782 2.87176 15.7351 2.8125 15.5859 2.8125H4.33594C4.18675 2.8125 4.04368 2.87176 3.93819 2.97725C3.8327 3.08274 3.77344 3.22582 3.77344 3.375V6.1875Z" fill="#6C727F"/>
<path id="Vector (Stroke)" fill-rule="evenodd" clip-rule="evenodd" d="M3.21094 3.375C3.21094 2.75368 3.71462 2.25 4.33594 2.25H15.5859C16.2073 2.25 16.7109 2.75368 16.7109 3.375V14.625C16.7109 15.2463 16.2073 15.75 15.5859 15.75H4.33594C3.71462 15.75 3.21094 15.2463 3.21094 14.625V3.375ZM15.5859 3.375H4.33594V14.625H15.5859V3.375Z" fill="#6C727F"/>
<path id="Vector (Stroke)_2" fill-rule="evenodd" clip-rule="evenodd" d="M13.3359 1.125C13.6466 1.125 13.8984 1.37684 13.8984 1.6875V3.9375C13.8984 4.24816 13.6466 4.5 13.3359 4.5C13.0253 4.5 12.7734 4.24816 12.7734 3.9375V1.6875C12.7734 1.37684 13.0253 1.125 13.3359 1.125Z" fill="#6C727F"/>
<path id="Vector (Stroke)_3" fill-rule="evenodd" clip-rule="evenodd" d="M6.58594 1.125C6.8966 1.125 7.14844 1.37684 7.14844 1.6875V3.9375C7.14844 4.24816 6.8966 4.5 6.58594 4.5C6.27528 4.5 6.02344 4.24816 6.02344 3.9375V1.6875C6.02344 1.37684 6.27528 1.125 6.58594 1.125Z" fill="#6C727F"/>
<path id="Vector (Stroke)_4" fill-rule="evenodd" clip-rule="evenodd" d="M3.21094 6.1875C3.21094 5.87684 3.46278 5.625 3.77344 5.625H16.1484C16.4591 5.625 16.7109 5.87684 16.7109 6.1875C16.7109 6.49816 16.4591 6.75 16.1484 6.75H3.77344C3.46278 6.75 3.21094 6.49816 3.21094 6.1875Z" fill="#6C727F"/>
</g>
</svg>
